<svg xmlns="http://www.w3.org/2000/svg">
  <symbol id="icon-search" viewBox="0 0 34 34" fill="none" xmlns="http://www.w3.org/2000/svg">
    <path d="M23.1429 14.1429C23.1429 19.1049 19.1049 23.1429 14.1429 23.1429C9.1808 23.1429 5.14286 19.1049 5.14286 14.1429C5.14286 9.1808 9.1808 5.14286 14.1429 5.14286C19.1049 5.14286 23.1429 9.1808 23.1429 14.1429ZM33.4286 30.8571C33.4286 30.1741 33.1473 29.5112 32.6853 29.0491L25.7946 22.1585C27.4219 19.808 28.2857 16.9955 28.2857 14.1429C28.2857 6.32812 21.9576 0 14.1429 0C6.32812 0 0 6.32812 0 14.1429C0 21.9576 6.32812 28.2857 14.1429 28.2857C16.9955 28.2857 19.808 27.4219 22.1585 25.7946L29.0491 32.6652C29.5112 33.1473 30.1741 33.4286 30.8571 33.4286C32.2634 33.4286 33.4286 32.2634 33.4286 30.8571Z" fill="white"/>
  </symbol>
  <symbol id="icon-percent" viewBox="0 0 31 31" fill="none" xmlns="http://www.w3.org/2000/svg">
    <path d="M25.7143 23.1429C25.7143 24.5491 24.5491 25.7143 23.1429 25.7143C21.7366 25.7143 20.5714 24.5491 20.5714 23.1429C20.5714 21.7366 21.7366 20.5714 23.1429 20.5714C24.5491 20.5714 25.7143 21.7366 25.7143 23.1429ZM10.2857 7.71429C10.2857 9.12054 9.12054 10.2857 7.71429 10.2857C6.30804 10.2857 5.14286 9.12054 5.14286 7.71429C5.14286 6.30804 6.30804 5.14286 7.71429 5.14286C9.12054 5.14286 10.2857 6.30804 10.2857 7.71429ZM30.8571 23.1429C30.8571 18.8839 27.4018 15.4286 23.1429 15.4286C18.8839 15.4286 15.4286 18.8839 15.4286 23.1429C15.4286 27.4018 18.8839 30.8571 23.1429 30.8571C27.4018 30.8571 30.8571 27.4018 30.8571 23.1429ZM28.9286 1.28571C28.9286 0.582589 28.346 0 27.6429 0H24.4286C24.0268 0 23.6451 0.200893 23.404 0.522323L2.18973 28.808C2.02902 29.029 1.92857 29.2902 1.92857 29.5714C1.92857 30.2746 2.51116 30.8571 3.21429 30.8571H6.42857C6.83036 30.8571 7.21205 30.6563 7.45313 30.3348L28.6674 2.04911C28.8281 1.82813 28.9286 1.56696 28.9286 1.28571ZM15.4286 7.71429C15.4286 3.45536 11.9732 0 7.71429 0C3.45536 0 0 3.45536 0 7.71429C0 11.9732 3.45536 15.4286 7.71429 15.4286C11.9732 15.4286 15.4286 11.9732 15.4286 7.71429Z" fill="white"/>
  </symbol>
  <symbol id="icon-file" viewBox="0 0 39 42" fill="none" xmlns="http://www.w3.org/2000/svg">
    <path d="M15.1293 22.8876V21.6019C15.1293 21.2403 15.4105 20.9591 15.7721 20.9591H29.915C30.2766 20.9591 30.5579 21.2403 30.5579 21.6019V22.8876C30.5579 23.2492 30.2766 23.5305 29.915 23.5305H15.7721C15.4105 23.5305 15.1293 23.2492 15.1293 22.8876Z" fill="white"/>
    <path d="M15.7721 26.1019H29.915C30.2766 26.1019 30.5579 26.3832 30.5579 26.7448V28.0305C30.5579 28.3921 30.2766 28.6733 29.915 28.6733H15.7721C15.4105 28.6733 15.1293 28.3921 15.1293 28.0305V26.7448C15.1293 26.3832 15.4105 26.1019 15.7721 26.1019Z" fill="white"/>
    <path d="M15.7721 31.2448H29.915C30.2766 31.2448 30.5579 31.526 30.5579 31.8876V33.1733C30.5579 33.535 30.2766 33.8162 29.915 33.8162H15.7721C15.4105 33.8162 15.1293 33.535 15.1293 33.1733V31.8876C15.1293 31.526 15.4105 31.2448 15.7721 31.2448Z" fill="white"/>
    <path fill-rule="evenodd" clip-rule="evenodd" d="M7.415 14.83C3.31981 14.83 0 11.5102 0 7.415C0 3.31981 3.31981 0 7.415 0C10.859 0 13.7546 2.34797 14.5884 5.53049H27.3436C28.4083 5.53049 29.8949 6.15326 30.6382 6.89656L36.9061 13.1644C37.6494 13.9077 38.2721 15.3943 38.2721 16.4591V39.6019C38.2721 40.6667 37.4083 41.5305 36.3436 41.5305H9.34357C8.27884 41.5305 7.415 40.6667 7.415 39.6019L7.415 14.83ZM9.98643 14.372C12.6089 13.4023 14.5331 10.9922 14.7986 8.10192H25.415V16.4591C25.415 17.5238 26.2788 18.3876 27.3436 18.3876H35.7007V38.9591H9.98643V14.372ZM28.8101 8.7046C28.6695 8.56397 28.3279 8.38317 27.9864 8.26263V15.8162H35.54C35.4195 15.4747 35.2387 15.1332 35.098 14.9925L28.8101 8.7046ZM8.415 8.41504H12.415V6.41504H8.415V2.41504H6.415V6.41504H2.415V8.41504H6.415V12.415H8.415V8.41504Z" fill="white"/>
  </symbol>
  <symbol id="icon-message" viewBox="0 0 36 29" fill="none" xmlns="http://www.w3.org/2000/svg">
    <path d="M33.4286 25.0714C33.4286 25.4129 33.1272 25.7143 32.7857 25.7143H3.21429C2.87277 25.7143 2.57143 25.4129 2.57143 25.0714V9.64286C2.9933 10.125 3.45536 10.567 3.95759 10.9688C6.83036 13.1786 9.72322 15.4286 12.5156 17.7589C14.0223 19.0246 15.8906 20.5714 17.9799 20.5714H18H18.0201C20.1094 20.5714 21.9777 19.0246 23.4844 17.7589C26.2768 15.4286 29.1696 13.1786 32.0424 10.9688C32.5446 10.567 33.0067 10.125 33.4286 9.64286V25.0714ZM33.4286 3.95759C33.4286 5.66518 31.7813 7.89509 30.4754 8.91964C27.7835 11.029 25.0915 13.1585 22.4196 15.2879C21.3549 16.1518 19.4263 18 18.0201 18H18H17.9799C16.5737 18 14.6451 16.1518 13.5804 15.2879C10.9085 13.1585 8.21652 11.029 5.52455 8.91964C3.71652 7.4933 2.57143 5.50446 2.57143 3.21429C2.57143 2.87277 2.87277 2.57143 3.21429 2.57143H32.7857C33.5491 2.57143 33.4286 3.45536 33.4286 3.95759ZM36 3.21429C36 1.44643 34.5536 0 32.7857 0H3.21429C1.44643 0 0 1.44643 0 3.21429V25.0714C0 26.8393 1.44643 28.2857 3.21429 28.2857H32.7857C34.5536 28.2857 36 26.8393 36 25.0714V3.21429Z" fill="white"/>
  </symbol>
  <symbol id="icon-money" viewBox="0 0 39 26" fill="none" xmlns="http://www.w3.org/2000/svg">
    <path d="M15.4286 18V16.0714H18V10.2857H17.9598C17.6384 10.7879 17.3371 11.0089 16.8549 11.4308L15.308 9.82366L18.2812 7.07143H20.5714V16.0714H23.1429V18H15.4286ZM25.7143 12.8571C25.7143 9.20089 23.5045 4.5 19.2857 4.5C15.067 4.5 12.8571 9.20089 12.8571 12.8571C12.8571 16.5134 15.067 21.2143 19.2857 21.2143C23.5045 21.2143 25.7143 16.5134 25.7143 12.8571ZM36 18C33.1674 18 30.8571 20.3103 30.8571 23.1429H7.71429C7.71429 20.3103 5.40402 18 2.57143 18V7.71429C5.40402 7.71429 7.71429 5.40402 7.71429 2.57143H30.8571C30.8571 5.40402 33.1674 7.71429 36 7.71429V18ZM38.5714 1.28571C38.5714 0.582589 37.9888 0 37.2857 0H1.28571C0.582589 0 0 0.582589 0 1.28571V24.4286C0 25.1317 0.582589 25.7143 1.28571 25.7143H37.2857C37.9888 25.7143 38.5714 25.1317 38.5714 24.4286V1.28571Z" fill="white"/>
  </symbol>
  <symbol id="icon-arrow" viewBox="0 0 9 6" fill="none" xmlns="http://www.w3.org/2000/svg">
  <path d="M8.91072 0.741071C8.91072 0.669643 8.875 0.589285 8.82143 0.535714L8.375 0.0892854C8.32143 0.0357141 8.24107 0 8.16964 0C8.09822 0 8.01786 0.0357141 7.96429 0.0892854L4.45536 3.59821L0.946429 0.0892854C0.892857 0.0357141 0.8125 0 0.741071 0C0.660714 0 0.589286 0.0357141 0.535714 0.0892854L0.0892857 0.535714C0.0357143 0.589285 0 0.669643 0 0.741071C0 0.8125 0.0357143 0.892858 0.0892857 0.946429L4.25 5.10714C4.30357 5.16071 4.38393 5.19643 4.45536 5.19643C4.52679 5.19643 4.60714 5.16071 4.66071 5.10714L8.82143 0.946429C8.875 0.892858 8.91072 0.8125 8.91072 0.741071Z" fill="black"/>
  </symbol>
  <symbol id="icon-qiwi" viewBox="0 0 20 20" fill="none" xmlns="http://www.w3.org/2000/svg">
    <path d="M16.4086 13.4559C16.4687 13.8435 16.3418 14.0076 16.2135 14.0076C16.0853 14.0076 15.8996 13.85 15.6925 13.5373C15.4855 13.2245 15.4147 12.8769 15.5149 12.6986C15.5526 12.6368 15.6135 12.5915 15.6849 12.572C15.7563 12.5525 15.8327 12.5604 15.8983 12.5939C16.2389 12.718 16.3725 13.2233 16.4086 13.4559ZM14.5209 14.3061C14.9311 14.6408 15.0553 15.0389 14.8389 15.3193C14.773 15.3977 14.689 15.46 14.5936 15.5013C14.4982 15.5426 14.3942 15.5617 14.2898 15.557C14.061 15.5574 13.8393 15.4801 13.6633 15.3386C13.2919 15.0246 13.1824 14.5142 13.4255 14.2247C13.4792 14.1653 13.5462 14.1186 13.6215 14.0881C13.6968 14.0577 13.7782 14.0443 13.8597 14.049C14.1045 14.0569 14.3386 14.1479 14.5209 14.3061ZM13.8369 17.5367C15.599 17.5367 17.5107 18.1208 19.6281 19.9351C19.8392 20.1161 20.1211 19.8912 19.9367 19.6651C17.8567 17.1258 15.929 16.6412 14.0146 16.2329C11.6688 15.7315 10.4611 14.4535 9.61546 13.0514C9.44847 12.7723 9.37232 12.8214 9.35762 13.1806C9.34358 13.7131 9.38521 14.2456 9.48186 14.7701C9.38701 14.7701 9.29083 14.7701 9.19598 14.7701C7.99378 14.7701 6.81858 14.4252 5.81899 13.7792C4.8194 13.1331 4.04031 12.2148 3.58025 11.1404C3.12019 10.0661 2.99982 8.88385 3.23436 7.7433C3.46889 6.60275 4.04781 5.55509 4.89789 4.7328C5.74797 3.91051 6.83104 3.35053 8.01014 3.12366C9.18924 2.89679 10.4114 3.01322 11.5221 3.45824C12.6328 3.90326 13.5821 4.65688 14.25 5.62379C14.9179 6.5907 15.2744 7.72748 15.2744 8.89037C15.275 9.11877 15.2621 9.347 15.2357 9.57397C14.5953 9.49597 13.9482 9.48427 13.3053 9.53908C13.0741 9.55846 13.1075 9.6683 13.2812 9.69285C15.2851 10.043 16.6718 11.2435 16.987 13.4339C16.9882 13.445 16.9929 13.4555 17.0005 13.4638C17.0082 13.4721 17.0183 13.478 17.0296 13.4804C17.0408 13.4828 17.0526 13.4818 17.0632 13.4774C17.0738 13.473 17.0827 13.4654 17.0886 13.4559C18.131 11.7703 18.5674 9.79838 18.3297 7.84774C18.092 5.89709 17.1936 4.07738 15.7746 2.67245C14.3556 1.26752 12.4958 0.356356 10.4853 0.0810911C8.47478 -0.194174 6.42664 0.181935 4.6603 1.15075C2.89396 2.11957 1.50876 3.62662 0.720758 5.43683C-0.0672464 7.24704 -0.213743 9.25863 0.304117 11.1578C0.821978 13.057 1.97508 14.737 3.58355 15.9358C5.19203 17.1346 7.16544 17.7848 9.19598 17.7849C10.5386 17.7887 11.8758 17.5355 13.8369 17.5355V17.5367Z" fill="#3E9CDC"/>
  </symbol>
  <symbol id="icon-yandex-money" viewBox="0 0 14 18" fill="none" xmlns="http://www.w3.org/2000/svg">
    <path fill-rule="evenodd" clip-rule="evenodd" d="M0.000202012 8.69327C0.000202012 7.70922 0.0833991 7.0847 2.13847 5.56344C3.83986 4.30395 9.2934 0 9.2934 0V7.18467H13.4406V17.5252H1.29554C0.583122 17.5252 0 16.947 0 16.2404L0.000202012 8.69334V8.69327Z" fill="#3E9CDC"/>
  </symbol>
  <symbol id="icon-web-money" viewBox="0 0 18 18" fill="none" xmlns="http://www.w3.org/2000/svg">
    <path d="M8.84077 0C10.251 0 11.5928 0.323103 12.7969 0.901077C12.9857 0.986269 13.1758 1.08823 13.364 1.19028L12.5384 1.92159L11.3007 0.646297L9.16802 2.51651L7.91214 1.17307L3.99048 4.65889L6.50126 7.39646L5.52108 8.24641L7.99822 10.984L7.01795 11.8336L10.5613 15.7274L12.6585 13.823L14.4826 15.8639C14.1211 16.136 13.7255 16.4086 13.296 16.6462C11.9886 17.3773 10.4747 17.8016 8.85814 17.8016C3.88691 17.8016 -0.154454 13.8066 -0.154454 8.89314C-0.172009 4.01286 3.87007 0 8.84077 0ZM7.18931 8.34864L9.33937 6.44418L11.2662 8.56952L9.11567 10.4738L7.18931 8.34864ZM8.72053 12.0214L10.8531 10.1001L12.7969 12.2253L10.6467 14.1298L8.72053 12.0214ZM5.65942 4.72713L7.80886 2.82267L9.73522 4.948L7.58507 6.85238L5.65942 4.72713ZM9.59741 3.70661L11.1971 2.27842L12.6423 3.85978L11.0426 5.30484L9.59741 3.70661ZM12.4529 10.2528L14.0521 8.82456L15.4972 10.4224L13.8974 11.8516L12.4529 10.2528ZM13.8631 13.4668L15.4629 12.0382L16.9068 13.6195L15.3076 15.0644L13.8631 13.4668ZM14.5168 6.12107L15.5831 5.16879L16.5459 6.22339L15.4799 7.17531L14.5168 6.12107ZM13.1408 2.97548L14.2071 2.00651L15.1707 3.07753L14.1036 4.02972L13.1408 2.97548ZM15.8755 9.26693L16.9417 8.31474L17.922 9.36899L16.8389 10.3209L15.8755 9.26693ZM11.0768 6.90341L12.6766 5.47513L14.1211 7.05614L12.522 8.48469L11.0768 6.90341Z" fill="#3E9CDC"/>
  </symbol>
  <symbol id="icon-vk" viewBox="0 0 11 14" fill="none" xmlns="http://www.w3.org/2000/svg">
    <path d="M10.4678 9.0791C10.4678 9.72949 10.3447 10.3008 10.0986 10.793C9.85254 11.2852 9.52148 11.6924 9.10547 12.0146C8.61328 12.4014 8.07129 12.6768 7.47949 12.8408C6.89355 13.0049 6.14648 13.0869 5.23828 13.0869H0V0H4.62305C5.58398 0 6.31055 0.0380859 6.80273 0.114258C7.30078 0.18457 7.7666 0.336914 8.2002 0.571289C8.66895 0.823242 9.01758 1.16016 9.24609 1.58203C9.48047 2.00391 9.59766 2.49023 9.59766 3.04102C9.59766 3.67969 9.43652 4.24805 9.11426 4.74609C8.79785 5.24414 8.3584 5.61035 7.7959 5.84473V5.91504C8.60449 6.08496 9.25195 6.43359 9.73828 6.96094C10.2246 7.48242 10.4678 8.18848 10.4678 9.0791ZM6.25781 3.7002C6.25781 3.48926 6.20215 3.27246 6.09082 3.0498C5.98535 2.82715 5.81836 2.66602 5.58984 2.56641C5.37305 2.47266 5.11523 2.42285 4.81641 2.41699C4.52344 2.40527 4.08398 2.39941 3.49805 2.39941H3.26953V5.16797H3.68262C4.24512 5.16797 4.6377 5.16211 4.86035 5.15039C5.08887 5.13867 5.32324 5.07715 5.56348 4.96582C5.82715 4.84277 6.00879 4.67285 6.1084 4.45605C6.20801 4.23926 6.25781 3.9873 6.25781 3.7002ZM7.08398 9.01758C7.08398 8.61328 7.00195 8.29688 6.83789 8.06836C6.67383 7.83984 6.42773 7.66699 6.09961 7.5498C5.90039 7.47363 5.625 7.43262 5.27344 7.42676C4.92773 7.41504 4.46191 7.40918 3.87598 7.40918H3.26953V10.6875H3.44531C4.30078 10.6875 4.89258 10.6816 5.2207 10.6699C5.54883 10.6582 5.88281 10.5791 6.22266 10.4326C6.52148 10.3037 6.73828 10.1162 6.87305 9.87012C7.01367 9.61816 7.08398 9.33398 7.08398 9.01758Z" fill="#3E9CDC"/>
  </symbol>
  <symbol id="icon-message-blue" viewBox="0 0 15 12" fill="none" xmlns="http://www.w3.org/2000/svg">
    <path d="M13.9286 10.4464C13.9286 10.5887 13.803 10.7143 13.6607 10.7143H1.33929C1.19699 10.7143 1.07143 10.5887 1.07143 10.4464V4.01786C1.24721 4.21875 1.43973 4.4029 1.649 4.57031C2.84598 5.49107 4.05134 6.42857 5.21484 7.39955C5.84263 7.9269 6.62109 8.57143 7.49163 8.57143H7.5H7.50837C8.37891 8.57143 9.15737 7.9269 9.78516 7.39955C10.9487 6.42857 12.154 5.49107 13.351 4.57031C13.5603 4.4029 13.7528 4.21875 13.9286 4.01786V10.4464ZM13.9286 1.649C13.9286 2.36049 13.2422 3.28962 12.6981 3.71652C11.5765 4.59542 10.4548 5.4827 9.34152 6.36998C8.89788 6.72991 8.09431 7.5 7.50837 7.5H7.5H7.49163C6.90569 7.5 6.10212 6.72991 5.65848 6.36998C4.5452 5.4827 3.42355 4.59542 2.3019 3.71652C1.54855 3.12221 1.07143 2.29353 1.07143 1.33929C1.07143 1.19699 1.19699 1.07143 1.33929 1.07143H13.6607C13.9788 1.07143 13.9286 1.43973 13.9286 1.649ZM15 1.33929C15 0.602678 14.3973 0 13.6607 0H1.33929C0.602679 0 0 0.602678 0 1.33929V10.4464C0 11.183 0.602679 11.7857 1.33929 11.7857H13.6607C14.3973 11.7857 15 11.183 15 10.4464V1.33929Z" fill="#3E9CDC"/>
  </symbol>
  <symbol id="icon-add-file" viewBox="0 0 18 20" fill="none" xmlns="http://www.w3.org/2000/svg">
    <path d="M16.3839 4.24107L12.9018 0.758929C12.4888 0.345982 11.6629 0 11.0714 0H1.07143C0.479911 0 0 0.479912 0 1.07143V18.9286C0 19.5201 0.479911 20 1.07143 20H16.0714C16.6629 20 17.1429 19.5201 17.1429 18.9286V6.07143C17.1429 5.47991 16.7969 4.65402 16.3839 4.24107ZM11.4286 1.51786C11.6183 1.58482 11.808 1.68527 11.8862 1.76339L15.3795 5.2567C15.4576 5.33482 15.558 5.52455 15.625 5.71429H11.4286V1.51786ZM15.7143 18.5714H1.42857V1.42857H10V6.07143C10 6.66295 10.4799 7.14286 11.0714 7.14286H15.7143V18.5714ZM4.28571 8.92857V9.64286C4.28571 9.84375 4.44197 10 4.64286 10H12.5C12.7009 10 12.8571 9.84375 12.8571 9.64286V8.92857C12.8571 8.72768 12.7009 8.57143 12.5 8.57143H4.64286C4.44197 8.57143 4.28571 8.72768 4.28571 8.92857ZM12.5 11.4286H4.64286C4.44197 11.4286 4.28571 11.5848 4.28571 11.7857V12.5C4.28571 12.7009 4.44197 12.8571 4.64286 12.8571H12.5C12.7009 12.8571 12.8571 12.7009 12.8571 12.5V11.7857C12.8571 11.5848 12.7009 11.4286 12.5 11.4286ZM12.5 14.2857H4.64286C4.44197 14.2857 4.28571 14.442 4.28571 14.6429V15.3571C4.28571 15.558 4.44197 15.7143 4.64286 15.7143H12.5C12.7009 15.7143 12.8571 15.558 12.8571 15.3571V14.6429C12.8571 14.442 12.7009 14.2857 12.5 14.2857Z" fill="#272733"/>
  </symbol>


</svg>